<svg width="57" height="52" viewBox="0 0 57 52" fill="none" xmlns="http://www.w3.org/2000/svg">
<g filter="url(#filter0_d)">
<path fill-rule="evenodd" clip-rule="evenodd" d="M52 24C52 34.8487 42.1343 44 29.5 44C16.8657 44 7 34.8487 7 24C7 13.1513 16.8657 4 29.5 4C42.1343 4 52 13.1513 52 24ZM54 24C54 36.1503 43.031 46 29.5 46C15.969 46 5 36.1503 5 24C5 11.8497 15.969 2 29.5 2C43.031 2 54 11.8497 54 24ZM15.543 34.3086L15.0859 34.6602L15.6133 35.1875C15.707 35.3047 15.7773 35.5156 15.8242 35.8203C15.8711 35.9844 15.9062 36.1484 15.9297 36.3125C15.9531 36.4531 16.0117 36.6172 16.1055 36.8047L16.3164 37.0859C16.5508 37.2031 16.75 37.3438 16.9141 37.5078C17.1016 37.6484 17.3359 37.8594 17.6172 38.1406L18.0742 38.1758C18.2383 38.1758 18.3789 38.1641 18.4961 38.1406C18.6367 38.1172 18.8594 38.0703 19.1641 38L19.6914 37.9297L19.7969 37.4727C19.8906 37.3789 20.0547 37.2852 20.2891 37.1914C20.4531 37.1211 20.6172 37.0391 20.7812 36.9453C20.9688 36.8516 21.1211 36.7109 21.2383 36.5234L21.3789 36.0664C21.3789 35.7148 21.4258 35.3633 21.5195 35.0117C21.6367 34.6602 21.7539 34.2969 21.8711 33.9219C21.9648 33.6875 22.0469 33.4531 22.1172 33.2188C22.2109 32.9844 22.2812 32.7383 22.3281 32.4805C22.375 32.4336 22.4336 32.3867 22.5039 32.3398C22.5742 32.293 22.6328 32.2344 22.6797 32.1641L23.0312 31.8477L22.8906 31.4609C22.8672 31.4141 22.8672 31.3438 22.8906 31.25C22.9375 31.1562 22.9844 31.0859 23.0312 31.0391L23.4883 30.9688L23.6289 30.5117L23.7695 30.0195C23.8398 29.832 23.9219 29.6445 24.0156 29.457C24.0391 29.7383 24.1328 30.0078 24.2969 30.2656C24.2031 30.6172 24.2383 30.9102 24.4023 31.1445C24.5664 31.3789 24.707 31.5664 24.8242 31.707C24.8711 31.7539 24.918 31.8125 24.9648 31.8828C25.0352 31.9297 25.0703 31.9766 25.0703 32.0234L25.1758 32.4102L25.5625 32.4453C26.0078 32.5156 26.4297 32.5508 26.8281 32.5508C27.4375 32.5508 28 32.5039 28.5156 32.4102C29.0312 32.293 29.5586 32.1641 30.0977 32.0234C30.4727 31.9297 30.8477 31.8477 31.2227 31.7773C31.5977 31.6836 32.0781 31.6953 32.6641 31.8125C32.7109 32.5625 32.6172 33.0898 32.3828 33.3945C32.1484 33.6758 31.6797 33.9102 30.9766 34.0977L29.8164 34.4141L30.5195 35.2227C30.6133 35.3164 30.6953 35.4102 30.7656 35.5039C30.8359 35.5742 30.918 35.6445 31.0117 35.7148C31.2695 35.9492 31.4336 36.1367 31.5039 36.2773C31.5977 36.418 31.6094 36.582 31.5391 36.7695L31.3984 37.2969L31.8555 37.5078C31.9727 37.5547 32.125 37.6484 32.3125 37.7891C32.4297 37.8828 32.5586 37.9766 32.6992 38.0703C32.8633 38.1641 33.1094 38.2461 33.4375 38.3164C34.0234 38.293 34.5859 38.1641 35.125 37.9297C35.6641 37.6719 36.1445 37.3555 36.5664 36.9805C37.0117 36.582 37.3867 36.1484 37.6914 35.6797C38.0195 35.1875 38.3008 34.6367 38.5352 34.0273C38.6055 33.4883 38.6055 32.9727 38.5352 32.4805C38.4883 31.9648 38.418 31.4727 38.3242 31.0039C38.2773 30.8164 38.2422 30.6523 38.2188 30.5117C38.2188 30.3711 38.1953 30.2188 38.1484 30.0547C38.8047 29.75 39.3906 29.3633 39.9062 28.8945C40.4453 28.4258 40.8438 27.9453 41.1016 27.4531L41.4531 26.7852L40.8203 26.5391C40.7734 26.5156 40.7148 26.4805 40.6445 26.4336L40.4688 26.2578C40.3516 26.1406 40.1992 26.0234 40.0117 25.9062C39.8477 25.7656 39.5781 25.6836 39.2031 25.6602C39.1094 25.5898 39.0273 25.5195 38.957 25.4492C38.8867 25.3789 38.8281 25.3086 38.7812 25.2383L38.6406 24.8164L38.1836 24.8516C37.8086 24.875 37.4805 24.9453 37.1992 25.0625C37.1523 25.0391 37.0117 25.0273 36.7773 25.0273C36.543 24.4648 36.3555 23.8789 36.2148 23.2695C36.0742 22.6367 35.9453 21.9805 35.8281 21.3008C35.7344 20.832 35.6289 20.3633 35.5117 19.8945C35.418 19.4023 35.3125 18.9219 35.1953 18.4531C35.1719 17.8672 35.125 17.3398 35.0547 16.8711C34.9844 16.3789 34.9023 15.8867 34.8086 15.3945L34.668 14.7617C34.6445 14.5508 34.6094 14.3164 34.5625 14.0586L34.3867 13.7422C34.1289 13.4844 33.7656 13.2852 33.2969 13.1445C32.8281 12.9805 32.3477 12.8398 31.8555 12.7227C31.5742 12.6289 31.3047 12.5469 31.0469 12.4766C30.7891 12.4062 30.6016 12.3359 30.4844 12.2656L29.9219 11.9141L29.5 12.5117C28.8906 13.4492 28.2812 14.2578 27.6719 14.9375C27.0859 15.5938 26.4062 16.0977 25.6328 16.4492L25 16.3438C24.8359 16.3438 24.6953 16.3672 24.5781 16.4141C24.4844 16.4375 24.3906 16.4727 24.2969 16.5195L23.9102 16.4844L23.6641 16.8359C23.2891 17.2812 22.9727 17.7383 22.7148 18.207C22.4805 18.6758 22.2578 19.1445 22.0469 19.6133C21.8594 20.0117 21.6602 20.3984 21.4492 20.7734C21.2617 21.1484 21.0039 21.5703 20.6758 22.0391C20.6289 22.1797 20.6055 22.3086 20.6055 22.4258C20.6055 22.5195 20.6172 22.6133 20.6406 22.707C20.4297 23.1758 20.207 23.6328 19.9727 24.0781L19.3398 25.4141C18.6602 26.7969 18.0039 28.1445 17.3711 29.457C16.7617 30.7695 16.1641 32.1406 15.5781 33.5703L15.543 34.3086ZM25.3516 26.9961C25.6562 26.4805 25.9727 25.9883 26.3008 25.5195L26.3359 25.4844C26.6875 24.8281 27.1328 24.1367 27.6719 23.4102C28.2109 22.6836 28.7734 22.0039 29.3594 21.3711L29.5352 21.0195C29.793 21.9336 30.0273 22.8477 30.2383 23.7617C30.4727 24.6523 30.6836 25.5312 30.8711 26.3984C30.0508 26.5625 29.2891 26.6797 28.5859 26.75C27.8828 26.8203 27.1211 26.8789 26.3008 26.9258C26.1367 26.9492 25.9727 26.9609 25.8086 26.9609C25.668 26.9609 25.5156 26.9727 25.3516 26.9961Z" fill="#322D2D"/>
</g>
<defs>
<filter id="filter0_d" x="0" y="0" width="57" height="52" filterUnits="userSpaceOnUse" color-interpolation-filters="sRGB">
<feFlood flood-opacity="0" result="BackgroundImageFix"/>
<feColorMatrix in="SourceAlpha" type="matrix" values="0 0 0 0 0 0 0 0 0 0 0 0 0 0 0 0 0 0 127 0"/>
<feOffset dx="-1" dy="2"/>
<feGaussianBlur stdDeviation="2"/>
<feColorMatrix type="matrix" values="0 0 0 0 0 0 0 0 0 0 0 0 0 0 0 0 0 0 1 0"/>
<feBlend mode="normal" in2="BackgroundImageFix" result="effect1_dropShadow"/>
<feBlend mode="normal" in="SourceGraphic" in2="effect1_dropShadow" result="shape"/>
</filter>
</defs>
</svg>
